# xmcd
#
# Track frame offsets: 
#        150
#        24810
#        72500
#        96338
#        115965
#        125305
#        153035
#        234410
#        265083
#        288828
#        322920
#
# Disc length: 4613 seconds
#
# Revision: 1
# Processed by: cddbd v1.5.2PL0 Copyright (c) Steve Scherf et al.
# Submitted via: ExactAudioCopy v0.99pb4
#
DISCID=8712030b
DTITLE=Gary Bartz Ntu Troop - Harlem Bush Music
DYEAR=1970
DGENRE=Jazz
TTITLE0=Rise
TTITLE1=People Dance
TTITLE2=Drinking Song
TTITLE3=Taifa
TTITLE4=Parted
TTITLE5=The Warrior´s Song
TTITLE6=Blue (A Folk Tale)
TTITLE7=Uhuru Sasa
TTITLE8=Vietcong
TTITLE9=Celestial Blues
TTITLE10=The Planets
EXTD=YEAR: 1970
EXTT0=
EXTT1=
EXTT2=
EXTT3=
EXTT4=
EXTT5=
EXTT6=
EXTT7=
EXTT8=
EXTT9=
EXTT10=
PLAYORDER=
